<svg width="24px" height="24px" viewBox="0 0 24 24" version="1.1" xmlns="http://www.w3.org/2000/svg" xmlns:xlink="http://www.w3.org/1999/xlink" xml:space="preserve" xmlns:serif="http://www.serif.com/" style="fill-rule:evenodd;clip-rule:evenodd;stroke-linejoin:round;stroke-miterlimit:2;">
    <g transform="matrix(0.026087,0,0,0.026087,-1.04348,-1.04348)">
        <g>
            <path d="M500,40C229.8,40 40,229.8 40,500C40,770.2 229.8,960 500,960C770.2,960 960,770.2 960,500C960,229.8 770.2,40 500,40ZM879,460.5C782.9,444.8 686.6,450.3 595.6,474.8C585.8,451.1 574.7,428 563.5,404.9C640.9,360.8 709.7,300.8 765.7,227.3C827.9,287.9 869.6,369.5 879,460.5ZM724.9,193C673.8,260.7 610.6,316 539.7,356.8C497.1,278.1 445.6,204.4 386.9,136C422.7,124.9 460.7,118.9 500,118.9C584.1,118.9 661.8,146.7 724.9,193ZM333.8,157.6C394.7,226.5 447.8,301.6 491.3,381.7C379.1,433.8 252,452.2 125.6,430.6C147.7,310.3 226.8,209.8 333.8,157.6ZM118.9,500C118.9,494.6 119.5,489.4 119.7,484C156.5,490 193.4,494.2 229.9,494.2C329.4,494.2 426.3,471 515,429.6C524.9,449.9 534.9,470.1 543.6,491C411.4,538.1 294.1,626.3 211.4,748.3C154,681.5 118.9,594.8 118.9,500ZM249.2,786.2C327,670.3 437.8,586.2 563,541.9C600.2,642.8 624.1,748.5 633.3,856.5C591.8,872.1 546.9,881.1 500,881.1C403.9,881.1 316.3,845.1 249.2,786.2ZM685.5,832.6C674.8,727.4 651.1,624.5 615.1,526C700.3,504 790.5,499.5 880.3,515.7C874.7,651.8 797.8,769.8 685.5,832.6Z" style="fill:rgb(224,98,140);fill-rule:nonzero;"/>
        </g>
    </g>
</svg>
